<svg version="1.1" id="Layer_1" xmlns="http://www.w3.org/2000/svg" xmlns:xlink="http://www.w3.org/1999/xlink" x="0px" y="0px"
	 width="100%" viewBox="0 0 1024 1024" enable-background="new 0 0 1024 1024" xml:space="preserve">
<path fill="#000000" opacity="1.000000" stroke="none" 
	d="
M618.630981,294.463043 
	C599.273865,358.145508 580.040283,421.445221 560.853149,484.758972 
	C534.674377,571.144226 508.526825,657.538940 482.378143,743.933350 
	C479.363953,753.892090 478.759247,754.387634 468.516174,754.392090 
	C451.355469,754.399475 434.194702,754.427917 417.034027,754.403503 
	C408.539093,754.391418 406.188446,751.241333 408.599884,743.228149 
	C434.749207,656.333130 460.866669,569.428528 487.065826,482.548553 
	C507.361450,415.245544 527.758484,347.973114 548.116211,280.688812 
	C550.624756,272.397858 551.676697,271.633087 560.458496,271.630249 
	C578.285645,271.624451 596.112854,271.612091 613.940002,271.638885 
	C622.882751,271.652344 624.842896,274.443878 622.138367,283.125336 
	C621.001709,286.774170 619.895386,290.432526 618.630981,294.463043 
z"/>
<path fill="#000000" opacity="1.000000" stroke="none" 
	d="
M686.063416,428.975342 
	C681.505798,425.573242 677.211487,422.413940 672.984497,419.166992 
	C669.308838,416.343506 667.654297,412.644867 667.677490,407.909729 
	C667.780457,386.911621 667.680359,365.912598 667.717590,344.914032 
	C667.734985,335.103485 672.613220,332.148834 681.189636,337.207458 
	C695.691833,345.761292 709.233887,355.787689 722.894592,365.595886 
	C765.241882,396.000671 807.532227,426.485626 849.732605,457.093903 
	C864.963684,468.141144 880.080994,479.366547 894.880127,490.982086 
	C910.485352,503.230347 909.872986,523.529480 893.948120,535.573914 
	C837.350769,578.380188 779.626343,619.649231 722.240356,661.379333 
	C709.712952,670.489075 697.057007,679.422180 684.445557,688.416016 
	C683.092346,689.381042 681.704590,690.335693 680.223877,691.077576 
	C673.273804,694.559814 667.780579,691.276733 667.737244,683.445679 
	C667.638672,665.614014 667.638123,647.781250 667.714783,629.949341 
	C667.799011,610.357727 665.664917,611.938721 682.868347,599.684326 
	C719.223022,573.787964 755.342041,547.560669 791.567566,521.482910 
	C799.878174,515.500305 799.565125,511.215912 791.136963,505.127686 
	C762.784180,484.646698 734.599609,463.933136 706.321960,443.347992 
	C699.724792,438.545471 693.014282,433.898560 686.063416,428.975342 
z"/>
<path fill="#000000" opacity="1.000000" stroke="none" 
	d="
M316.610779,445.642151 
	C288.576294,466.033081 260.814819,486.188599 233.085495,506.388336 
	C226.952652,510.855865 226.929001,515.444885 233.155899,519.939270 
	C267.185455,544.500793 301.273712,568.980896 335.322693,593.515564 
	C341.267303,597.799011 347.134613,602.190430 353.011017,606.567566 
	C356.730927,609.338379 358.429016,612.923523 358.394653,617.726318 
	C358.240875,639.220825 358.311188,660.717102 358.351685,682.212585 
	C358.358429,685.806152 358.353333,689.388611 354.762909,691.433716 
	C350.857117,693.658447 347.374664,691.992859 344.080139,689.777039 
	C325.833405,677.504822 308.182343,664.402222 290.430695,651.434326 
	C242.696411,616.563354 194.861969,581.829468 147.093735,547.004944 
	C141.309967,542.788330 135.605820,538.452820 130.008224,533.992432 
	C115.817902,522.685059 116.238747,502.457092 130.669708,491.434052 
	C176.070435,456.754852 223.016129,424.203278 269.265259,390.692932 
	C292.729553,373.691650 316.109253,356.567078 340.152374,340.381104 
	C342.632355,338.711548 345.204376,337.117645 347.901886,335.845154 
	C353.379028,333.261414 358.017731,336.083038 358.270752,342.192261 
	C358.484344,347.349243 358.332733,352.521606 358.332916,357.687164 
	C358.333496,374.350433 358.211426,391.014984 358.395233,407.676178 
	C358.454773,413.073090 356.328156,416.821075 352.064697,419.875580 
	C340.286255,428.314087 328.611206,436.896881 316.610779,445.642151 
z"/>
</svg>